<svg xmlns="http://www.w3.org/2000/svg" viewBox="0 0 1200 630" width="1200" height="630">
  <defs>
    <linearGradient id="bg" x1="0" y1="0" x2="1" y2="1">
      <stop offset="0" stop-color="#3a2a12"/>
      <stop offset="1" stop-color="#0d1117"/>
    </linearGradient>
  </defs>
  <rect width="1200" height="630" fill="url(#bg)"/>
  <line x1="184" y1="220" x2="66" y2="315" stroke="#9d6bff" stroke-opacity="0.25" stroke-width="1.5"/><line x1="184" y1="220" x2="111" y2="89" stroke="#9d6bff" stroke-opacity="0.25" stroke-width="1.5"/><line x1="184" y1="220" x2="365" y2="162" stroke="#9d6bff" stroke-opacity="0.25" stroke-width="1.5"/><line x1="184" y1="220" x2="212" y2="376" stroke="#9d6bff" stroke-opacity="0.25" stroke-width="1.5"/><line x1="184" y1="220" x2="67" y2="339" stroke="#9d6bff" stroke-opacity="0.25" stroke-width="1.5"/><line x1="184" y1="220" x2="146" y2="188" stroke="#9d6bff" stroke-opacity="0.25" stroke-width="1.5"/><line x1="184" y1="220" x2="107" y2="251" stroke="#9d6bff" stroke-opacity="0.25" stroke-width="1.5"/><line x1="184" y1="220" x2="246" y2="125" stroke="#9d6bff" stroke-opacity="0.25" stroke-width="1.5"/><line x1="1010" y1="497" x2="945" y2="441" stroke="#4f8cff" stroke-opacity="0.25" stroke-width="1.5"/><line x1="1010" y1="497" x2="954" y2="541" stroke="#4f8cff" stroke-opacity="0.25" stroke-width="1.5"/><line x1="1010" y1="497" x2="1013" y2="546" stroke="#4f8cff" stroke-opacity="0.25" stroke-width="1.5"/><line x1="754" y1="499" x2="945" y2="441" stroke="#4f8cff" stroke-opacity="0.25" stroke-width="1.5"/><line x1="754" y1="499" x2="954" y2="541" stroke="#4f8cff" stroke-opacity="0.25" stroke-width="1.5"/><line x1="754" y1="499" x2="775" y2="467" stroke="#4f8cff" stroke-opacity="0.25" stroke-width="1.5"/><line x1="754" y1="499" x2="636" y2="474" stroke="#4f8cff" stroke-opacity="0.25" stroke-width="1.5"/><line x1="945" y1="441" x2="954" y2="541" stroke="#4f8cff" stroke-opacity="0.25" stroke-width="1.5"/><line x1="945" y1="441" x2="775" y2="467" stroke="#4f8cff" stroke-opacity="0.25" stroke-width="1.5"/><line x1="945" y1="441" x2="935" y2="259" stroke="#4f8cff" stroke-opacity="0.25" stroke-width="1.5"/><line x1="945" y1="441" x2="992" y2="240" stroke="#4f8cff" stroke-opacity="0.25" stroke-width="1.5"/><line x1="945" y1="441" x2="1013" y2="546" stroke="#4f8cff" stroke-opacity="0.25" stroke-width="1.5"/><line x1="954" y1="541" x2="775" y2="467" stroke="#9d6bff" stroke-opacity="0.25" stroke-width="1.5"/><line x1="954" y1="541" x2="1013" y2="546" stroke="#9d6bff" stroke-opacity="0.25" stroke-width="1.5"/><line x1="151" y1="496" x2="64" y2="521" stroke="#9d6bff" stroke-opacity="0.25" stroke-width="1.5"/><line x1="151" y1="496" x2="66" y2="315" stroke="#9d6bff" stroke-opacity="0.25" stroke-width="1.5"/><line x1="151" y1="496" x2="226" y2="458" stroke="#9d6bff" stroke-opacity="0.25" stroke-width="1.5"/><line x1="151" y1="496" x2="212" y2="376" stroke="#9d6bff" stroke-opacity="0.25" stroke-width="1.5"/><line x1="151" y1="496" x2="67" y2="339" stroke="#9d6bff" stroke-opacity="0.25" stroke-width="1.5"/><line x1="64" y1="521" x2="66" y2="315" stroke="#4f8cff" stroke-opacity="0.25" stroke-width="1.5"/><line x1="64" y1="521" x2="226" y2="458" stroke="#4f8cff" stroke-opacity="0.25" stroke-width="1.5"/><line x1="64" y1="521" x2="212" y2="376" stroke="#4f8cff" stroke-opacity="0.25" stroke-width="1.5"/><line x1="64" y1="521" x2="67" y2="339" stroke="#4f8cff" stroke-opacity="0.25" stroke-width="1.5"/><line x1="66" y1="315" x2="226" y2="458" stroke="#9d6bff" stroke-opacity="0.25" stroke-width="1.5"/><line x1="66" y1="315" x2="212" y2="376" stroke="#9d6bff" stroke-opacity="0.25" stroke-width="1.5"/><line x1="66" y1="315" x2="67" y2="339" stroke="#9d6bff" stroke-opacity="0.25" stroke-width="1.5"/><line x1="66" y1="315" x2="146" y2="188" stroke="#9d6bff" stroke-opacity="0.25" stroke-width="1.5"/><line x1="66" y1="315" x2="107" y2="251" stroke="#9d6bff" stroke-opacity="0.25" stroke-width="1.5"/><line x1="1051" y1="71" x2="935" y2="259" stroke="#9d6bff" stroke-opacity="0.25" stroke-width="1.5"/><line x1="1051" y1="71" x2="1067" y2="177" stroke="#9d6bff" stroke-opacity="0.25" stroke-width="1.5"/><line x1="1051" y1="71" x2="1116" y2="189" stroke="#9d6bff" stroke-opacity="0.25" stroke-width="1.5"/><line x1="1051" y1="71" x2="992" y2="240" stroke="#9d6bff" stroke-opacity="0.25" stroke-width="1.5"/><line x1="775" y1="467" x2="636" y2="474" stroke="#9d6bff" stroke-opacity="0.25" stroke-width="1.5"/><line x1="226" y1="458" x2="212" y2="376" stroke="#9d6bff" stroke-opacity="0.25" stroke-width="1.5"/><line x1="226" y1="458" x2="67" y2="339" stroke="#9d6bff" stroke-opacity="0.25" stroke-width="1.5"/><line x1="935" y1="259" x2="1067" y2="177" stroke="#9d6bff" stroke-opacity="0.25" stroke-width="1.5"/><line x1="935" y1="259" x2="1116" y2="189" stroke="#9d6bff" stroke-opacity="0.25" stroke-width="1.5"/><line x1="935" y1="259" x2="992" y2="240" stroke="#9d6bff" stroke-opacity="0.25" stroke-width="1.5"/><line x1="111" y1="89" x2="146" y2="188" stroke="#9d6bff" stroke-opacity="0.25" stroke-width="1.5"/><line x1="111" y1="89" x2="107" y2="251" stroke="#9d6bff" stroke-opacity="0.25" stroke-width="1.5"/><line x1="111" y1="89" x2="246" y2="125" stroke="#9d6bff" stroke-opacity="0.25" stroke-width="1.5"/><line x1="365" y1="162" x2="146" y2="188" stroke="#9d6bff" stroke-opacity="0.25" stroke-width="1.5"/><line x1="365" y1="162" x2="246" y2="125" stroke="#9d6bff" stroke-opacity="0.25" stroke-width="1.5"/><line x1="1067" y1="177" x2="1116" y2="189" stroke="#9d6bff" stroke-opacity="0.25" stroke-width="1.5"/><line x1="1067" y1="177" x2="992" y2="240" stroke="#9d6bff" stroke-opacity="0.25" stroke-width="1.5"/><line x1="505" y1="349" x2="636" y2="474" stroke="#9d6bff" stroke-opacity="0.25" stroke-width="1.5"/><line x1="212" y1="376" x2="67" y2="339" stroke="#9d6bff" stroke-opacity="0.25" stroke-width="1.5"/><line x1="212" y1="376" x2="146" y2="188" stroke="#9d6bff" stroke-opacity="0.25" stroke-width="1.5"/><line x1="212" y1="376" x2="107" y2="251" stroke="#9d6bff" stroke-opacity="0.25" stroke-width="1.5"/><line x1="67" y1="339" x2="146" y2="188" stroke="#4f8cff" stroke-opacity="0.25" stroke-width="1.5"/><line x1="67" y1="339" x2="107" y2="251" stroke="#4f8cff" stroke-opacity="0.25" stroke-width="1.5"/><line x1="1116" y1="189" x2="992" y2="240" stroke="#9d6bff" stroke-opacity="0.25" stroke-width="1.5"/><line x1="146" y1="188" x2="107" y2="251" stroke="#9d6bff" stroke-opacity="0.25" stroke-width="1.5"/><line x1="146" y1="188" x2="246" y2="125" stroke="#9d6bff" stroke-opacity="0.25" stroke-width="1.5"/><line x1="107" y1="251" x2="246" y2="125" stroke="#9d6bff" stroke-opacity="0.25" stroke-width="1.5"/><circle cx="184" cy="220" r="7.2" fill="#e6edf3" fill-opacity="0.55"/><circle cx="1010" cy="497" r="3.9" fill="#e6edf3" fill-opacity="0.55"/><circle cx="754" cy="499" r="3.7" fill="#e6edf3" fill-opacity="0.55"/><circle cx="945" cy="441" r="3.6" fill="#e6edf3" fill-opacity="0.55"/><circle cx="954" cy="541" r="5.7" fill="#e6edf3" fill-opacity="0.55"/><circle cx="151" cy="496" r="7.1" fill="#e6edf3" fill-opacity="0.55"/><circle cx="64" cy="521" r="4.9" fill="#e6edf3" fill-opacity="0.55"/><circle cx="66" cy="315" r="6.1" fill="#e6edf3" fill-opacity="0.55"/><circle cx="605" cy="92" r="7.9" fill="#e6edf3" fill-opacity="0.55"/><circle cx="1051" cy="71" r="7.3" fill="#e6edf3" fill-opacity="0.55"/><circle cx="775" cy="467" r="6.5" fill="#e6edf3" fill-opacity="0.55"/><circle cx="226" cy="458" r="7.4" fill="#e6edf3" fill-opacity="0.55"/><circle cx="935" cy="259" r="7.2" fill="#e6edf3" fill-opacity="0.55"/><circle cx="111" cy="89" r="8.0" fill="#e6edf3" fill-opacity="0.55"/><circle cx="365" cy="162" r="6.8" fill="#e6edf3" fill-opacity="0.55"/><circle cx="1067" cy="177" r="5.7" fill="#e6edf3" fill-opacity="0.55"/><circle cx="505" cy="349" r="6.9" fill="#e6edf3" fill-opacity="0.55"/><circle cx="212" cy="376" r="7.3" fill="#e6edf3" fill-opacity="0.55"/><circle cx="636" cy="474" r="4.1" fill="#e6edf3" fill-opacity="0.55"/><circle cx="67" cy="339" r="4.4" fill="#e6edf3" fill-opacity="0.55"/><circle cx="1116" cy="189" r="5.2" fill="#e6edf3" fill-opacity="0.55"/><circle cx="992" cy="240" r="3.7" fill="#e6edf3" fill-opacity="0.55"/><circle cx="146" cy="188" r="6.8" fill="#e6edf3" fill-opacity="0.55"/><circle cx="107" cy="251" r="6.8" fill="#e6edf3" fill-opacity="0.55"/><circle cx="246" cy="125" r="5.6" fill="#e6edf3" fill-opacity="0.55"/><circle cx="1013" cy="546" r="5.4" fill="#e6edf3" fill-opacity="0.55"/>
  <rect x="0" y="0" width="1200" height="630" fill="#0d1117" fill-opacity="0.45"/>
  <rect x="48" y="48" width="8" height="534" fill="#f59e0b"/>
  <text x="72" y="150" font-family="Arial, sans-serif" font-size="30" font-weight="bold" fill="#f59e0b" letter-spacing="4">НЕЙРОЛЕНТА ■ ИНДУСТРИЯ</text>
  <text x="72" y="250" font-family="Arial, sans-serif" font-size="46" font-weight="bold" fill="#e6edf3"><tspan x="72" dy="0">HackerRank выпустил</tspan><tspan x="72" dy="52">ИИ-собеседование Chakra в широкий</tspan><tspan x="72" dy="52">доступ</tspan></text>
  <text x="72" y="575" font-family="Arial, sans-serif" font-size="26" fill="#9aa7b5">2026-10-05</text>
</svg>