<svg xmlns="http://www.w3.org/2000/svg" viewBox="0 0 1200 640" width="1200" height="640">
  <defs>
    <linearGradient id="bg" x1="0" y1="0" x2="1" y2="1">
      <stop offset="0" stop-color="#33182a"/>
      <stop offset="1" stop-color="#0d1117"/>
    </linearGradient>
    <linearGradient id="glow" x1="0" y1="0" x2="1" y2="0">
      <stop offset="0" stop-color="#fb7185" stop-opacity="0.9"/>
      <stop offset="1" stop-color="#f43f5e" stop-opacity="0.9"/>
    </linearGradient>
  </defs>
  <rect width="1200" height="640" fill="url(#bg)"/>
  <circle cx="637" cy="330" r="308" fill="url(#glow)" opacity="0.18"/>
  <line x1="637" y1="310" x2="619" y2="341" stroke="#4f8cff" stroke-opacity="0.22" stroke-width="1.5"/><line x1="637" y1="310" x2="738" y2="219" stroke="#4f8cff" stroke-opacity="0.22" stroke-width="1.5"/><line x1="637" y1="310" x2="726" y2="324" stroke="#4f8cff" stroke-opacity="0.22" stroke-width="1.5"/><line x1="637" y1="310" x2="582" y2="157" stroke="#4f8cff" stroke-opacity="0.22" stroke-width="1.5"/><line x1="637" y1="310" x2="673" y2="345" stroke="#4f8cff" stroke-opacity="0.22" stroke-width="1.5"/><line x1="637" y1="310" x2="416" y2="344" stroke="#4f8cff" stroke-opacity="0.22" stroke-width="1.5"/><line x1="637" y1="310" x2="519" y2="427" stroke="#4f8cff" stroke-opacity="0.22" stroke-width="1.5"/><line x1="285" y1="145" x2="203" y2="331" stroke="#9d6bff" stroke-opacity="0.22" stroke-width="1.5"/><line x1="285" y1="145" x2="294" y2="76" stroke="#9d6bff" stroke-opacity="0.22" stroke-width="1.5"/><line x1="285" y1="145" x2="272" y2="88" stroke="#9d6bff" stroke-opacity="0.22" stroke-width="1.5"/><line x1="285" y1="145" x2="100" y2="231" stroke="#9d6bff" stroke-opacity="0.22" stroke-width="1.5"/><line x1="1070" y1="80" x2="928" y2="70" stroke="#9d6bff" stroke-opacity="0.22" stroke-width="1.5"/><line x1="1070" y1="80" x2="939" y2="145" stroke="#9d6bff" stroke-opacity="0.22" stroke-width="1.5"/><line x1="203" y1="331" x2="105" y2="471" stroke="#9d6bff" stroke-opacity="0.22" stroke-width="1.5"/><line x1="203" y1="331" x2="202" y2="391" stroke="#9d6bff" stroke-opacity="0.22" stroke-width="1.5"/><line x1="203" y1="331" x2="100" y2="231" stroke="#9d6bff" stroke-opacity="0.22" stroke-width="1.5"/><line x1="203" y1="331" x2="416" y2="344" stroke="#9d6bff" stroke-opacity="0.22" stroke-width="1.5"/><line x1="294" y1="76" x2="272" y2="88" stroke="#9d6bff" stroke-opacity="0.22" stroke-width="1.5"/><line x1="712" y1="51" x2="738" y2="219" stroke="#9d6bff" stroke-opacity="0.22" stroke-width="1.5"/><line x1="712" y1="51" x2="928" y2="70" stroke="#9d6bff" stroke-opacity="0.22" stroke-width="1.5"/><line x1="712" y1="51" x2="582" y2="157" stroke="#9d6bff" stroke-opacity="0.22" stroke-width="1.5"/><line x1="827" y1="472" x2="871" y2="400" stroke="#4f8cff" stroke-opacity="0.22" stroke-width="1.5"/><line x1="827" y1="472" x2="785" y2="555" stroke="#4f8cff" stroke-opacity="0.22" stroke-width="1.5"/><line x1="827" y1="472" x2="726" y2="324" stroke="#4f8cff" stroke-opacity="0.22" stroke-width="1.5"/><line x1="827" y1="472" x2="945" y2="308" stroke="#4f8cff" stroke-opacity="0.22" stroke-width="1.5"/><line x1="827" y1="472" x2="673" y2="345" stroke="#4f8cff" stroke-opacity="0.22" stroke-width="1.5"/><line x1="871" y1="400" x2="785" y2="555" stroke="#9d6bff" stroke-opacity="0.22" stroke-width="1.5"/><line x1="871" y1="400" x2="738" y2="219" stroke="#9d6bff" stroke-opacity="0.22" stroke-width="1.5"/><line x1="871" y1="400" x2="726" y2="324" stroke="#9d6bff" stroke-opacity="0.22" stroke-width="1.5"/><line x1="871" y1="400" x2="945" y2="308" stroke="#9d6bff" stroke-opacity="0.22" stroke-width="1.5"/><line x1="871" y1="400" x2="673" y2="345" stroke="#9d6bff" stroke-opacity="0.22" stroke-width="1.5"/><line x1="619" y1="341" x2="738" y2="219" stroke="#9d6bff" stroke-opacity="0.22" stroke-width="1.5"/><line x1="619" y1="341" x2="726" y2="324" stroke="#9d6bff" stroke-opacity="0.22" stroke-width="1.5"/><line x1="619" y1="341" x2="582" y2="157" stroke="#9d6bff" stroke-opacity="0.22" stroke-width="1.5"/><line x1="619" y1="341" x2="673" y2="345" stroke="#9d6bff" stroke-opacity="0.22" stroke-width="1.5"/><line x1="619" y1="341" x2="416" y2="344" stroke="#9d6bff" stroke-opacity="0.22" stroke-width="1.5"/><line x1="619" y1="341" x2="519" y2="427" stroke="#9d6bff" stroke-opacity="0.22" stroke-width="1.5"/><line x1="738" y1="219" x2="726" y2="324" stroke="#9d6bff" stroke-opacity="0.22" stroke-width="1.5"/><line x1="738" y1="219" x2="582" y2="157" stroke="#9d6bff" stroke-opacity="0.22" stroke-width="1.5"/><line x1="738" y1="219" x2="945" y2="308" stroke="#9d6bff" stroke-opacity="0.22" stroke-width="1.5"/><line x1="738" y1="219" x2="673" y2="345" stroke="#9d6bff" stroke-opacity="0.22" stroke-width="1.5"/><line x1="738" y1="219" x2="939" y2="145" stroke="#9d6bff" stroke-opacity="0.22" stroke-width="1.5"/><line x1="928" y1="70" x2="939" y2="145" stroke="#4f8cff" stroke-opacity="0.22" stroke-width="1.5"/><line x1="726" y1="324" x2="582" y2="157" stroke="#4f8cff" stroke-opacity="0.22" stroke-width="1.5"/><line x1="726" y1="324" x2="945" y2="308" stroke="#4f8cff" stroke-opacity="0.22" stroke-width="1.5"/><line x1="726" y1="324" x2="673" y2="345" stroke="#4f8cff" stroke-opacity="0.22" stroke-width="1.5"/><line x1="582" y1="157" x2="673" y2="345" stroke="#9d6bff" stroke-opacity="0.22" stroke-width="1.5"/><line x1="945" y1="308" x2="939" y2="145" stroke="#9d6bff" stroke-opacity="0.22" stroke-width="1.5"/><line x1="105" y1="471" x2="202" y2="391" stroke="#4f8cff" stroke-opacity="0.22" stroke-width="1.5"/><line x1="673" y1="345" x2="519" y2="427" stroke="#9d6bff" stroke-opacity="0.22" stroke-width="1.5"/><line x1="272" y1="88" x2="100" y2="231" stroke="#9d6bff" stroke-opacity="0.22" stroke-width="1.5"/><line x1="202" y1="391" x2="100" y2="231" stroke="#4f8cff" stroke-opacity="0.22" stroke-width="1.5"/><line x1="202" y1="391" x2="416" y2="344" stroke="#4f8cff" stroke-opacity="0.22" stroke-width="1.5"/><line x1="416" y1="344" x2="519" y2="427" stroke="#4f8cff" stroke-opacity="0.22" stroke-width="1.5"/>
  <circle cx="637" cy="310" r="4.2" fill="#e6edf3" fill-opacity="0.5"/><circle cx="285" cy="145" r="7.4" fill="#e6edf3" fill-opacity="0.5"/><circle cx="1070" cy="80" r="5.5" fill="#e6edf3" fill-opacity="0.5"/><circle cx="203" cy="331" r="5.7" fill="#e6edf3" fill-opacity="0.5"/><circle cx="294" cy="76" r="5.0" fill="#e6edf3" fill-opacity="0.5"/><circle cx="712" cy="51" r="5.6" fill="#e6edf3" fill-opacity="0.5"/><circle cx="827" cy="472" r="4.5" fill="#e6edf3" fill-opacity="0.5"/><circle cx="1091" cy="516" r="3.8" fill="#e6edf3" fill-opacity="0.5"/><circle cx="871" cy="400" r="5.6" fill="#e6edf3" fill-opacity="0.5"/><circle cx="619" cy="341" r="7.0" fill="#e6edf3" fill-opacity="0.5"/><circle cx="785" cy="555" r="5.0" fill="#e6edf3" fill-opacity="0.5"/><circle cx="738" cy="219" r="6.8" fill="#e6edf3" fill-opacity="0.5"/><circle cx="928" cy="70" r="4.4" fill="#e6edf3" fill-opacity="0.5"/><circle cx="726" cy="324" r="4.9" fill="#e6edf3" fill-opacity="0.5"/><circle cx="582" cy="157" r="5.3" fill="#e6edf3" fill-opacity="0.5"/><circle cx="945" cy="308" r="7.9" fill="#e6edf3" fill-opacity="0.5"/><circle cx="105" cy="471" r="4.6" fill="#e6edf3" fill-opacity="0.5"/><circle cx="673" cy="345" r="7.5" fill="#e6edf3" fill-opacity="0.5"/><circle cx="939" cy="145" r="3.8" fill="#e6edf3" fill-opacity="0.5"/><circle cx="272" cy="88" r="5.5" fill="#e6edf3" fill-opacity="0.5"/><circle cx="202" cy="391" r="4.7" fill="#e6edf3" fill-opacity="0.5"/><circle cx="100" cy="231" r="3.4" fill="#e6edf3" fill-opacity="0.5"/><circle cx="416" cy="344" r="3.8" fill="#e6edf3" fill-opacity="0.5"/><circle cx="519" cy="427" r="7.9" fill="#e6edf3" fill-opacity="0.5"/>
  <rect x="0" y="0" width="1200" height="640" fill="rgba(13,17,23,0.35)"/>

  <!-- Левая панель-элементы -->
  <rect x="48" y="52" width="96" height="6" rx="3" fill="#fb7185"/>
  <rect x="48" y="72" width="58" height="5" rx="2.5" fill="#fb7185" opacity="0.75"/>
  <rect x="48" y="90" width="78" height="5" rx="2.5" fill="#fb7185" opacity="0.5"/>
  <text x="152" y="112" font-family="Arial, sans-serif" font-size="27" font-weight="bold" fill="#fb7185" letter-spacing="3">НЕЙРОЛЕНТА</text>
  <text x="152" y="148" font-family="Arial, sans-serif" font-size="17" fill="#9aa7b5" letter-spacing="1.5">ОБЩЕСТВО</text>

  <!-- Надпись даты -->
  <rect x="48" y="562" width="160" height="22" rx="11" fill="rgba(255,255,255,0.14)" stroke="rgba(255,255,255,0.35)"/>
  <text x="128" y="584" font-family="Arial, sans-serif" font-size="19" fill="#e6edf3" text-anchor="middle">2026-10-06</text>

  <!-- Заголовок -->
  <text x="72" y="250" font-family="Arial, sans-serif" font-size="50" font-weight="bold" fill="#ffffff" letter-spacing="1.5"><tspan x="72" dy="0">ChatGPT подписывает</tspan><tspan x="72" dy="56">ИИ-мультфильмы в стиле New</tspan><tspan x="72" dy="56">Yorker чужими именами</tspan></text>
  <text x="72" y="320" font-family="Arial, sans-serif" font-size="25" fill="#c8d4e0" opacity="0.9" letter-spacing="0.5">ОБЩЕСТВО · Nieman Lab</text>

  <!-- Большой линейный значок категории справа -->
  <text x="1040" y="470" font-family="Arial, sans-serif" font-size="210" font-weight="bold" fill="url(#glow)" text-anchor="end" opacity="0.85">★</text>
  <text x="1040" y="510" font-family="Arial, sans-serif" font-size="210" font-weight="bold" fill="rgba(255,255,255,0.35)" text-anchor="end" opacity="0.8">★</text>
</svg>