<svg xmlns="http://www.w3.org/2000/svg" viewBox="0 0 1200 640" width="1200" height="640">
  <defs>
    <linearGradient id="bg" x1="0" y1="0" x2="1" y2="1">
      <stop offset="0" stop-color="#152040"/>
      <stop offset="1" stop-color="#0d1117"/>
    </linearGradient>
    <linearGradient id="glow" x1="0" y1="0" x2="1" y2="0">
      <stop offset="0" stop-color="#4f8cff" stop-opacity="0.9"/>
      <stop offset="1" stop-color="#9d6bff" stop-opacity="0.9"/>
    </linearGradient>
  </defs>
  <rect width="1200" height="640" fill="url(#bg)"/>
  <circle cx="509" cy="440" r="405" fill="url(#glow)" opacity="0.18"/>
  <line x1="509" y1="420" x2="424" y2="537" stroke="#9d6bff" stroke-opacity="0.22" stroke-width="1.5"/><line x1="509" y1="420" x2="513" y2="449" stroke="#9d6bff" stroke-opacity="0.22" stroke-width="1.5"/><line x1="509" y1="420" x2="500" y2="370" stroke="#9d6bff" stroke-opacity="0.22" stroke-width="1.5"/><line x1="509" y1="420" x2="309" y2="350" stroke="#9d6bff" stroke-opacity="0.22" stroke-width="1.5"/><line x1="509" y1="420" x2="731" y2="393" stroke="#9d6bff" stroke-opacity="0.22" stroke-width="1.5"/><line x1="509" y1="420" x2="543" y2="258" stroke="#9d6bff" stroke-opacity="0.22" stroke-width="1.5"/><line x1="509" y1="420" x2="400" y2="276" stroke="#9d6bff" stroke-opacity="0.22" stroke-width="1.5"/><line x1="509" y1="420" x2="644" y2="247" stroke="#9d6bff" stroke-opacity="0.22" stroke-width="1.5"/><line x1="424" y1="537" x2="513" y2="449" stroke="#9d6bff" stroke-opacity="0.22" stroke-width="1.5"/><line x1="424" y1="537" x2="500" y2="370" stroke="#9d6bff" stroke-opacity="0.22" stroke-width="1.5"/><line x1="424" y1="537" x2="309" y2="350" stroke="#9d6bff" stroke-opacity="0.22" stroke-width="1.5"/><line x1="636" y1="177" x2="516" y2="75" stroke="#4f8cff" stroke-opacity="0.22" stroke-width="1.5"/><line x1="636" y1="177" x2="543" y2="258" stroke="#4f8cff" stroke-opacity="0.22" stroke-width="1.5"/><line x1="636" y1="177" x2="857" y2="148" stroke="#4f8cff" stroke-opacity="0.22" stroke-width="1.5"/><line x1="636" y1="177" x2="644" y2="247" stroke="#4f8cff" stroke-opacity="0.22" stroke-width="1.5"/><line x1="516" y1="75" x2="543" y2="258" stroke="#9d6bff" stroke-opacity="0.22" stroke-width="1.5"/><line x1="516" y1="75" x2="644" y2="247" stroke="#9d6bff" stroke-opacity="0.22" stroke-width="1.5"/><line x1="513" y1="449" x2="500" y2="370" stroke="#9d6bff" stroke-opacity="0.22" stroke-width="1.5"/><line x1="513" y1="449" x2="309" y2="350" stroke="#9d6bff" stroke-opacity="0.22" stroke-width="1.5"/><line x1="513" y1="449" x2="731" y2="393" stroke="#9d6bff" stroke-opacity="0.22" stroke-width="1.5"/><line x1="513" y1="449" x2="543" y2="258" stroke="#9d6bff" stroke-opacity="0.22" stroke-width="1.5"/><line x1="513" y1="449" x2="400" y2="276" stroke="#9d6bff" stroke-opacity="0.22" stroke-width="1.5"/><line x1="1078" y1="475" x2="999" y2="519" stroke="#4f8cff" stroke-opacity="0.22" stroke-width="1.5"/><line x1="1078" y1="475" x2="891" y2="365" stroke="#4f8cff" stroke-opacity="0.22" stroke-width="1.5"/><line x1="1078" y1="475" x2="892" y2="379" stroke="#4f8cff" stroke-opacity="0.22" stroke-width="1.5"/><line x1="500" y1="370" x2="309" y2="350" stroke="#4f8cff" stroke-opacity="0.22" stroke-width="1.5"/><line x1="500" y1="370" x2="543" y2="258" stroke="#4f8cff" stroke-opacity="0.22" stroke-width="1.5"/><line x1="500" y1="370" x2="400" y2="276" stroke="#4f8cff" stroke-opacity="0.22" stroke-width="1.5"/><line x1="500" y1="370" x2="644" y2="247" stroke="#4f8cff" stroke-opacity="0.22" stroke-width="1.5"/><line x1="309" y1="350" x2="84" y2="370" stroke="#9d6bff" stroke-opacity="0.22" stroke-width="1.5"/><line x1="309" y1="350" x2="400" y2="276" stroke="#9d6bff" stroke-opacity="0.22" stroke-width="1.5"/><line x1="309" y1="350" x2="248" y2="373" stroke="#9d6bff" stroke-opacity="0.22" stroke-width="1.5"/><line x1="309" y1="350" x2="284" y2="216" stroke="#9d6bff" stroke-opacity="0.22" stroke-width="1.5"/><line x1="957" y1="112" x2="857" y2="148" stroke="#9d6bff" stroke-opacity="0.22" stroke-width="1.5"/><line x1="957" y1="112" x2="1115" y2="81" stroke="#9d6bff" stroke-opacity="0.22" stroke-width="1.5"/><line x1="731" y1="393" x2="644" y2="247" stroke="#9d6bff" stroke-opacity="0.22" stroke-width="1.5"/><line x1="731" y1="393" x2="891" y2="365" stroke="#9d6bff" stroke-opacity="0.22" stroke-width="1.5"/><line x1="731" y1="393" x2="892" y2="379" stroke="#9d6bff" stroke-opacity="0.22" stroke-width="1.5"/><line x1="84" y1="370" x2="107" y2="524" stroke="#9d6bff" stroke-opacity="0.22" stroke-width="1.5"/><line x1="84" y1="370" x2="248" y2="373" stroke="#9d6bff" stroke-opacity="0.22" stroke-width="1.5"/><line x1="543" y1="258" x2="400" y2="276" stroke="#9d6bff" stroke-opacity="0.22" stroke-width="1.5"/><line x1="543" y1="258" x2="644" y2="247" stroke="#9d6bff" stroke-opacity="0.22" stroke-width="1.5"/><line x1="400" y1="276" x2="248" y2="373" stroke="#9d6bff" stroke-opacity="0.22" stroke-width="1.5"/><line x1="400" y1="276" x2="284" y2="216" stroke="#9d6bff" stroke-opacity="0.22" stroke-width="1.5"/><line x1="105" y1="119" x2="211" y2="139" stroke="#4f8cff" stroke-opacity="0.22" stroke-width="1.5"/><line x1="105" y1="119" x2="284" y2="216" stroke="#4f8cff" stroke-opacity="0.22" stroke-width="1.5"/><line x1="107" y1="524" x2="248" y2="373" stroke="#9d6bff" stroke-opacity="0.22" stroke-width="1.5"/><line x1="857" y1="148" x2="891" y2="365" stroke="#9d6bff" stroke-opacity="0.22" stroke-width="1.5"/><line x1="999" y1="519" x2="891" y2="365" stroke="#9d6bff" stroke-opacity="0.22" stroke-width="1.5"/><line x1="999" y1="519" x2="892" y2="379" stroke="#9d6bff" stroke-opacity="0.22" stroke-width="1.5"/><line x1="211" y1="139" x2="284" y2="216" stroke="#9d6bff" stroke-opacity="0.22" stroke-width="1.5"/><line x1="891" y1="365" x2="892" y2="379" stroke="#4f8cff" stroke-opacity="0.22" stroke-width="1.5"/><line x1="248" y1="373" x2="284" y2="216" stroke="#4f8cff" stroke-opacity="0.22" stroke-width="1.5"/>
  <circle cx="509" cy="420" r="5.6" fill="#e6edf3" fill-opacity="0.5"/><circle cx="424" cy="537" r="5.7" fill="#e6edf3" fill-opacity="0.5"/><circle cx="636" cy="177" r="3.5" fill="#e6edf3" fill-opacity="0.5"/><circle cx="516" cy="75" r="6.3" fill="#e6edf3" fill-opacity="0.5"/><circle cx="513" cy="449" r="5.9" fill="#e6edf3" fill-opacity="0.5"/><circle cx="1078" cy="475" r="4.6" fill="#e6edf3" fill-opacity="0.5"/><circle cx="500" cy="370" r="4.4" fill="#e6edf3" fill-opacity="0.5"/><circle cx="309" cy="350" r="7.3" fill="#e6edf3" fill-opacity="0.5"/><circle cx="957" cy="112" r="5.5" fill="#e6edf3" fill-opacity="0.5"/><circle cx="731" cy="393" r="6.1" fill="#e6edf3" fill-opacity="0.5"/><circle cx="84" cy="370" r="6.1" fill="#e6edf3" fill-opacity="0.5"/><circle cx="543" cy="258" r="7.6" fill="#e6edf3" fill-opacity="0.5"/><circle cx="400" cy="276" r="7.7" fill="#e6edf3" fill-opacity="0.5"/><circle cx="105" cy="119" r="3.6" fill="#e6edf3" fill-opacity="0.5"/><circle cx="107" cy="524" r="7.1" fill="#e6edf3" fill-opacity="0.5"/><circle cx="857" cy="148" r="5.5" fill="#e6edf3" fill-opacity="0.5"/><circle cx="644" cy="247" r="5.9" fill="#e6edf3" fill-opacity="0.5"/><circle cx="999" cy="519" r="5.3" fill="#e6edf3" fill-opacity="0.5"/><circle cx="211" cy="139" r="5.7" fill="#e6edf3" fill-opacity="0.5"/><circle cx="891" cy="365" r="4.4" fill="#e6edf3" fill-opacity="0.5"/><circle cx="248" cy="373" r="3.3" fill="#e6edf3" fill-opacity="0.5"/><circle cx="892" cy="379" r="4.5" fill="#e6edf3" fill-opacity="0.5"/><circle cx="1115" cy="81" r="5.2" fill="#e6edf3" fill-opacity="0.5"/><circle cx="284" cy="216" r="7.5" fill="#e6edf3" fill-opacity="0.5"/>
  <rect x="0" y="0" width="1200" height="640" fill="rgba(13,17,23,0.35)"/>

  <!-- Левая панель-элементы -->
  <rect x="48" y="52" width="96" height="6" rx="3" fill="#4f8cff"/>
  <rect x="48" y="72" width="58" height="5" rx="2.5" fill="#4f8cff" opacity="0.75"/>
  <rect x="48" y="90" width="78" height="5" rx="2.5" fill="#4f8cff" opacity="0.5"/>
  <text x="152" y="112" font-family="Arial, sans-serif" font-size="27" font-weight="bold" fill="#4f8cff" letter-spacing="3">НЕЙРОЛЕНТА</text>
  <text x="152" y="148" font-family="Arial, sans-serif" font-size="17" fill="#9aa7b5" letter-spacing="1.5">МОДЕЛИ</text>

  <!-- Надпись даты -->
  <rect x="48" y="562" width="160" height="22" rx="11" fill="rgba(255,255,255,0.14)" stroke="rgba(255,255,255,0.35)"/>
  <text x="128" y="584" font-family="Arial, sans-serif" font-size="19" fill="#e6edf3" text-anchor="middle">2026-10-06</text>

  <!-- Заголовок -->
  <text x="72" y="250" font-family="Arial, sans-serif" font-size="50" font-weight="bold" fill="#ffffff" letter-spacing="1.5"><tspan x="72" dy="0">Mistral представила Large 4</tspan><tspan x="72" dy="56">«Le Chonk» — новый флагман</tspan><tspan x="72" dy="56">европейского ИИ</tspan></text>
  <text x="72" y="320" font-family="Arial, sans-serif" font-size="25" fill="#c8d4e0" opacity="0.9" letter-spacing="0.5">МОДЕЛИ · 3DNews</text>

  <!-- Большой линейный значок категории справа -->
  <text x="1040" y="470" font-family="Arial, sans-serif" font-size="210" font-weight="bold" fill="url(#glow)" text-anchor="end" opacity="0.85">◆</text>
  <text x="1040" y="510" font-family="Arial, sans-serif" font-size="210" font-weight="bold" fill="rgba(255,255,255,0.35)" text-anchor="end" opacity="0.8">◆</text>
</svg>