<svg xmlns="http://www.w3.org/2000/svg" viewBox="0 0 1200 640" width="1200" height="640">
  <defs>
    <linearGradient id="bg" x1="0" y1="0" x2="1" y2="1">
      <stop offset="0" stop-color="#152040"/>
      <stop offset="1" stop-color="#0d1117"/>
    </linearGradient>
    <linearGradient id="glow" x1="0" y1="0" x2="1" y2="0">
      <stop offset="0" stop-color="#4f8cff" stop-opacity="0.9"/>
      <stop offset="1" stop-color="#9d6bff" stop-opacity="0.9"/>
    </linearGradient>
  </defs>
  <rect width="1200" height="640" fill="url(#bg)"/>
  <circle cx="118" cy="258" r="577" fill="url(#glow)" opacity="0.18"/>
  <line x1="118" y1="238" x2="287" y2="389" stroke="#9d6bff" stroke-opacity="0.22" stroke-width="1.5"/><line x1="118" y1="238" x2="129" y2="325" stroke="#9d6bff" stroke-opacity="0.22" stroke-width="1.5"/><line x1="118" y1="238" x2="114" y2="361" stroke="#9d6bff" stroke-opacity="0.22" stroke-width="1.5"/><line x1="118" y1="238" x2="346" y2="255" stroke="#9d6bff" stroke-opacity="0.22" stroke-width="1.5"/><line x1="118" y1="238" x2="328" y2="144" stroke="#9d6bff" stroke-opacity="0.22" stroke-width="1.5"/><line x1="313" y1="548" x2="85" y2="553" stroke="#9d6bff" stroke-opacity="0.22" stroke-width="1.5"/><line x1="313" y1="548" x2="162" y2="517" stroke="#9d6bff" stroke-opacity="0.22" stroke-width="1.5"/><line x1="313" y1="548" x2="287" y2="389" stroke="#9d6bff" stroke-opacity="0.22" stroke-width="1.5"/><line x1="313" y1="548" x2="333" y2="554" stroke="#9d6bff" stroke-opacity="0.22" stroke-width="1.5"/><line x1="313" y1="548" x2="413" y2="547" stroke="#9d6bff" stroke-opacity="0.22" stroke-width="1.5"/><line x1="313" y1="548" x2="404" y2="497" stroke="#9d6bff" stroke-opacity="0.22" stroke-width="1.5"/><line x1="313" y1="548" x2="213" y2="477" stroke="#9d6bff" stroke-opacity="0.22" stroke-width="1.5"/><line x1="85" y1="553" x2="162" y2="517" stroke="#9d6bff" stroke-opacity="0.22" stroke-width="1.5"/><line x1="85" y1="553" x2="114" y2="361" stroke="#9d6bff" stroke-opacity="0.22" stroke-width="1.5"/><line x1="85" y1="553" x2="213" y2="477" stroke="#9d6bff" stroke-opacity="0.22" stroke-width="1.5"/><line x1="965" y1="471" x2="799" y2="476" stroke="#9d6bff" stroke-opacity="0.22" stroke-width="1.5"/><line x1="162" y1="517" x2="287" y2="389" stroke="#4f8cff" stroke-opacity="0.22" stroke-width="1.5"/><line x1="162" y1="517" x2="333" y2="554" stroke="#4f8cff" stroke-opacity="0.22" stroke-width="1.5"/><line x1="162" y1="517" x2="129" y2="325" stroke="#4f8cff" stroke-opacity="0.22" stroke-width="1.5"/><line x1="162" y1="517" x2="114" y2="361" stroke="#4f8cff" stroke-opacity="0.22" stroke-width="1.5"/><line x1="162" y1="517" x2="213" y2="477" stroke="#4f8cff" stroke-opacity="0.22" stroke-width="1.5"/><line x1="287" y1="389" x2="333" y2="554" stroke="#4f8cff" stroke-opacity="0.22" stroke-width="1.5"/><line x1="287" y1="389" x2="352" y2="288" stroke="#4f8cff" stroke-opacity="0.22" stroke-width="1.5"/><line x1="287" y1="389" x2="129" y2="325" stroke="#4f8cff" stroke-opacity="0.22" stroke-width="1.5"/><line x1="287" y1="389" x2="114" y2="361" stroke="#4f8cff" stroke-opacity="0.22" stroke-width="1.5"/><line x1="287" y1="389" x2="346" y2="255" stroke="#4f8cff" stroke-opacity="0.22" stroke-width="1.5"/><line x1="287" y1="389" x2="413" y2="547" stroke="#4f8cff" stroke-opacity="0.22" stroke-width="1.5"/><line x1="287" y1="389" x2="420" y2="202" stroke="#4f8cff" stroke-opacity="0.22" stroke-width="1.5"/><line x1="287" y1="389" x2="404" y2="497" stroke="#4f8cff" stroke-opacity="0.22" stroke-width="1.5"/><line x1="287" y1="389" x2="213" y2="477" stroke="#4f8cff" stroke-opacity="0.22" stroke-width="1.5"/><line x1="709" y1="303" x2="799" y2="476" stroke="#9d6bff" stroke-opacity="0.22" stroke-width="1.5"/><line x1="709" y1="303" x2="700" y2="385" stroke="#9d6bff" stroke-opacity="0.22" stroke-width="1.5"/><line x1="709" y1="303" x2="756" y2="92" stroke="#9d6bff" stroke-opacity="0.22" stroke-width="1.5"/><line x1="709" y1="303" x2="540" y2="304" stroke="#9d6bff" stroke-opacity="0.22" stroke-width="1.5"/><line x1="799" y1="476" x2="700" y2="385" stroke="#4f8cff" stroke-opacity="0.22" stroke-width="1.5"/><line x1="1006" y1="84" x2="982" y2="82" stroke="#9d6bff" stroke-opacity="0.22" stroke-width="1.5"/><line x1="700" y1="385" x2="540" y2="304" stroke="#9d6bff" stroke-opacity="0.22" stroke-width="1.5"/><line x1="333" y1="554" x2="413" y2="547" stroke="#4f8cff" stroke-opacity="0.22" stroke-width="1.5"/><line x1="333" y1="554" x2="404" y2="497" stroke="#4f8cff" stroke-opacity="0.22" stroke-width="1.5"/><line x1="333" y1="554" x2="213" y2="477" stroke="#4f8cff" stroke-opacity="0.22" stroke-width="1.5"/><line x1="352" y1="288" x2="129" y2="325" stroke="#9d6bff" stroke-opacity="0.22" stroke-width="1.5"/><line x1="352" y1="288" x2="346" y2="255" stroke="#9d6bff" stroke-opacity="0.22" stroke-width="1.5"/><line x1="352" y1="288" x2="328" y2="144" stroke="#9d6bff" stroke-opacity="0.22" stroke-width="1.5"/><line x1="352" y1="288" x2="540" y2="304" stroke="#9d6bff" stroke-opacity="0.22" stroke-width="1.5"/><line x1="352" y1="288" x2="420" y2="202" stroke="#9d6bff" stroke-opacity="0.22" stroke-width="1.5"/><line x1="352" y1="288" x2="404" y2="497" stroke="#9d6bff" stroke-opacity="0.22" stroke-width="1.5"/><line x1="129" y1="325" x2="114" y2="361" stroke="#4f8cff" stroke-opacity="0.22" stroke-width="1.5"/><line x1="129" y1="325" x2="346" y2="255" stroke="#4f8cff" stroke-opacity="0.22" stroke-width="1.5"/><line x1="129" y1="325" x2="213" y2="477" stroke="#4f8cff" stroke-opacity="0.22" stroke-width="1.5"/><line x1="114" y1="361" x2="213" y2="477" stroke="#4f8cff" stroke-opacity="0.22" stroke-width="1.5"/><line x1="756" y1="92" x2="982" y2="82" stroke="#4f8cff" stroke-opacity="0.22" stroke-width="1.5"/><line x1="346" y1="255" x2="328" y2="144" stroke="#4f8cff" stroke-opacity="0.22" stroke-width="1.5"/><line x1="346" y1="255" x2="540" y2="304" stroke="#4f8cff" stroke-opacity="0.22" stroke-width="1.5"/><line x1="346" y1="255" x2="420" y2="202" stroke="#4f8cff" stroke-opacity="0.22" stroke-width="1.5"/><line x1="346" y1="255" x2="417" y2="56" stroke="#4f8cff" stroke-opacity="0.22" stroke-width="1.5"/><line x1="413" y1="547" x2="404" y2="497" stroke="#4f8cff" stroke-opacity="0.22" stroke-width="1.5"/><line x1="413" y1="547" x2="213" y2="477" stroke="#4f8cff" stroke-opacity="0.22" stroke-width="1.5"/><line x1="328" y1="144" x2="420" y2="202" stroke="#4f8cff" stroke-opacity="0.22" stroke-width="1.5"/><line x1="328" y1="144" x2="417" y2="56" stroke="#4f8cff" stroke-opacity="0.22" stroke-width="1.5"/><line x1="540" y1="304" x2="420" y2="202" stroke="#9d6bff" stroke-opacity="0.22" stroke-width="1.5"/><line x1="420" y1="202" x2="417" y2="56" stroke="#4f8cff" stroke-opacity="0.22" stroke-width="1.5"/><line x1="404" y1="497" x2="213" y2="477" stroke="#9d6bff" stroke-opacity="0.22" stroke-width="1.5"/>
  <circle cx="118" cy="238" r="8.0" fill="#e6edf3" fill-opacity="0.5"/><circle cx="313" cy="548" r="7.1" fill="#e6edf3" fill-opacity="0.5"/><circle cx="85" cy="553" r="5.8" fill="#e6edf3" fill-opacity="0.5"/><circle cx="965" cy="471" r="5.9" fill="#e6edf3" fill-opacity="0.5"/><circle cx="162" cy="517" r="4.6" fill="#e6edf3" fill-opacity="0.5"/><circle cx="287" cy="389" r="4.0" fill="#e6edf3" fill-opacity="0.5"/><circle cx="709" cy="303" r="6.2" fill="#e6edf3" fill-opacity="0.5"/><circle cx="799" cy="476" r="3.2" fill="#e6edf3" fill-opacity="0.5"/><circle cx="1006" cy="84" r="7.2" fill="#e6edf3" fill-opacity="0.5"/><circle cx="700" cy="385" r="5.2" fill="#e6edf3" fill-opacity="0.5"/><circle cx="333" cy="554" r="4.2" fill="#e6edf3" fill-opacity="0.5"/><circle cx="352" cy="288" r="6.5" fill="#e6edf3" fill-opacity="0.5"/><circle cx="129" cy="325" r="4.0" fill="#e6edf3" fill-opacity="0.5"/><circle cx="114" cy="361" r="3.9" fill="#e6edf3" fill-opacity="0.5"/><circle cx="756" cy="92" r="3.2" fill="#e6edf3" fill-opacity="0.5"/><circle cx="346" cy="255" r="4.0" fill="#e6edf3" fill-opacity="0.5"/><circle cx="413" cy="547" r="3.5" fill="#e6edf3" fill-opacity="0.5"/><circle cx="328" cy="144" r="3.6" fill="#e6edf3" fill-opacity="0.5"/><circle cx="540" cy="304" r="6.4" fill="#e6edf3" fill-opacity="0.5"/><circle cx="420" cy="202" r="4.2" fill="#e6edf3" fill-opacity="0.5"/><circle cx="417" cy="56" r="3.8" fill="#e6edf3" fill-opacity="0.5"/><circle cx="982" cy="82" r="7.5" fill="#e6edf3" fill-opacity="0.5"/><circle cx="404" cy="497" r="7.3" fill="#e6edf3" fill-opacity="0.5"/><circle cx="213" cy="477" r="5.2" fill="#e6edf3" fill-opacity="0.5"/>
  <rect x="0" y="0" width="1200" height="640" fill="rgba(13,17,23,0.35)"/>

  <!-- Левая панель-элементы -->
  <rect x="48" y="52" width="96" height="6" rx="3" fill="#4f8cff"/>
  <rect x="48" y="72" width="58" height="5" rx="2.5" fill="#4f8cff" opacity="0.75"/>
  <rect x="48" y="90" width="78" height="5" rx="2.5" fill="#4f8cff" opacity="0.5"/>
  <text x="152" y="112" font-family="Arial, sans-serif" font-size="27" font-weight="bold" fill="#4f8cff" letter-spacing="3">НЕЙРОЛЕНТА</text>
  <text x="152" y="148" font-family="Arial, sans-serif" font-size="17" fill="#9aa7b5" letter-spacing="1.5">МОДЕЛИ</text>

  <!-- Надпись даты -->
  <rect x="48" y="562" width="160" height="22" rx="11" fill="rgba(255,255,255,0.14)" stroke="rgba(255,255,255,0.35)"/>
  <text x="128" y="584" font-family="Arial, sans-serif" font-size="19" fill="#e6edf3" text-anchor="middle">2026-10-06</text>

  <!-- Заголовок -->
  <text x="72" y="250" font-family="Arial, sans-serif" font-size="50" font-weight="bold" fill="#ffffff" letter-spacing="1.5"><tspan x="72" dy="0">Сбер запустил в ГигаЧате</tspan><tspan x="72" dy="56">генерацию видео со звуком</tspan><tspan x="72" dy="56">Kandinsky 6.0 Video</tspan></text>
  <text x="72" y="320" font-family="Arial, sans-serif" font-size="25" fill="#c8d4e0" opacity="0.9" letter-spacing="0.5">МОДЕЛИ · Hi-Tech Mail</text>

  <!-- Большой линейный значок категории справа -->
  <text x="1040" y="470" font-family="Arial, sans-serif" font-size="210" font-weight="bold" fill="url(#glow)" text-anchor="end" opacity="0.85">◆</text>
  <text x="1040" y="510" font-family="Arial, sans-serif" font-size="210" font-weight="bold" fill="rgba(255,255,255,0.35)" text-anchor="end" opacity="0.8">◆</text>
</svg>